<svg width="97" height="97" viewBox="0 0 97 97" fill="none" xmlns="http://www.w3.org/2000/svg">
<g clip-path="url(#clip0_2041_2015)">
<path d="M88.1698 0.873538C88.0815 0.833506 86.8434 0.918485 86.6457 0.890652C86.4479 0.862819 86.049 0.258434 85.7927 0.249961C85.5364 0.241488 85.9633 0.248855 85.7145 0.261923C85.4656 0.27499 85.2417 0.298269 85.0643 0.329514L71.1045 2.69799L71.3584 2.74418H88.7934V2.12063L88.1698 0.873538Z" fill="url(#paint0_linear_2041_2015)"/>
<path d="M0.407177 85.2874C0.13866 87.1925 1.05384 87.4261 2.12074 88.7936H2.74431L2.74431 68.7427C2.34672 71.2968 0.407177 85.2874 0.407177 85.2874Z" fill="url(#paint1_linear_2041_2015)"/>
<g filter="url(#filter0_d_2041_2015)">
<path d="M9.6807 0.288316H78.261C79.1593 0.288307 85.5809 0.25 86.6518 0.25C87.7227 0.25 88.7897 0.853889 88.7936 1.75392V2.43071C87.9369 -0.109601 85.1384 1.4352 83.8462 2.52513L66.5521 20.3955L15.384 71.6431L2.85731 84.2371C1.34577 85.5799 1.10317 88.1276 2.41662 88.7936C0.274838 88.7936 0.274773 86.2609 0.274802 85.4041C0.274828 84.6342 0.274837 81.9162 0.274842 80.4592L0.274847 79.5203C0.274847 75.1279 0.204582 30.3636 0.300374 9.64163C0.310125 7.15631 1.30294 4.77622 3.06125 3.02297C4.81956 1.26973 7.19993 0.286342 9.6807 0.288316Z" fill="url(#paint2_linear_2041_2015)"/>
</g>
<g filter="url(#filter1_d_2041_2015)">
<path d="M14.1688 52.3423L11.1584 49.782L9.61257 48.2362L10.8854 46.9634L12.4312 48.5092L15.0505 51.4606L14.1688 52.3423ZM14.9952 52.3128L16.6332 52.3128L16.6332 53.9508L14.9952 53.9508V52.3128ZM25.9326 43.9578C25.7285 44.162 25.5268 44.3317 25.3276 44.467C25.1284 44.6022 24.9242 44.7055 24.7152 44.7769C24.5086 44.8457 24.2958 44.8814 24.0769 44.8839C23.8556 44.8839 23.6232 44.8506 23.3797 44.7842C23.328 45.4311 23.1251 46.0743 22.7709 46.7137C22.4192 47.3507 21.9126 48 21.251 48.6616C20.3901 49.5225 19.5847 50.1386 18.8345 50.51C18.0819 50.8789 17.3834 50.9822 16.739 50.8199C16.53 50.7682 16.3234 50.6747 16.1192 50.5395C15.9151 50.4042 15.7183 50.2296 15.5289 50.0156C15.342 49.7992 15.1686 49.5471 15.0087 49.2593C14.8489 48.9666 14.7099 48.6383 14.5919 48.2743L15.979 47.9053C16.0258 48.0505 16.0836 48.2017 16.1524 48.3591C16.2188 48.5141 16.2963 48.6604 16.3848 48.7981C16.4734 48.931 16.5705 49.0502 16.6763 49.156C16.782 49.2568 16.8976 49.3257 17.0231 49.3626C17.2346 49.4266 17.4596 49.4179 17.6982 49.3368C17.9392 49.2532 18.1889 49.1216 18.4471 48.942C18.7078 48.76 18.9747 48.5424 19.2477 48.289C19.5182 48.0332 19.7937 47.7652 20.0741 47.4848C20.3323 47.2265 20.5685 46.9732 20.7824 46.7248C20.9939 46.4739 21.1772 46.2317 21.3321 45.998C21.4871 45.7594 21.6113 45.5295 21.7047 45.3081C21.7982 45.0818 21.8548 44.8654 21.8744 44.6588C21.8941 44.4719 21.8867 44.2948 21.8523 44.1276C21.8179 43.9603 21.7687 43.798 21.7047 43.6406C21.6383 43.4807 21.5584 43.3245 21.4649 43.172C21.3739 43.0171 21.2805 42.8621 21.1846 42.7072L22.4795 41.9361L23.1103 42.8695C23.2013 43.0048 23.3083 43.1069 23.4313 43.1757C23.5543 43.2446 23.6883 43.2778 23.8334 43.2753C23.9761 43.2704 24.1274 43.2298 24.2872 43.1536C24.4471 43.0724 24.607 42.9519 24.7668 42.792L24.8996 42.6592L26.0654 43.825L25.9326 43.9578ZM17.6171 44.4153V45.8025L16.1893 45.8062L16.1856 44.3858L17.5875 44.3858L17.5875 42.9986L19.0153 42.995L19.019 44.4153H17.6171ZM24.8802 42.6787C24.9712 42.5877 25.0806 42.4783 25.2085 42.3504C25.3364 42.2175 25.4704 42.0761 25.6106 41.9261C25.7508 41.7711 25.891 41.6113 26.0312 41.4465C26.1714 41.2817 26.2981 41.1181 26.4112 40.9558C26.5268 40.791 26.624 40.6324 26.7027 40.4799C26.7814 40.3274 26.8306 40.1872 26.8502 40.0593C26.56 40.4135 26.2722 40.7185 25.9869 40.9743C25.7041 41.2276 25.42 41.4084 25.1347 41.5166C24.8519 41.6223 24.5678 41.6433 24.2825 41.5793C23.9972 41.5104 23.7058 41.3297 23.4082 41.037C23.2729 40.9017 23.1474 40.7492 23.0318 40.5795C22.9138 40.4074 22.813 40.2253 22.7293 40.0335C22.6457 39.8367 22.583 39.6363 22.5412 39.4322C22.4969 39.2256 22.4809 39.0227 22.4932 38.8234C22.508 38.6218 22.5535 38.4287 22.6297 38.2442C22.706 38.0548 22.8216 37.8827 22.9765 37.7277C23.1708 37.5334 23.3848 37.3932 23.6184 37.3071C23.8546 37.2186 24.1005 37.1743 24.3563 37.1743C24.6121 37.1694 24.8716 37.2026 25.1347 37.2739C25.4004 37.3428 25.6574 37.4375 25.9058 37.558C26.1542 37.6785 26.3903 37.8187 26.6141 37.9786C26.8379 38.1385 27.0384 38.3069 27.2155 38.484C27.5106 38.7792 27.7258 39.078 27.8611 39.3805C27.9988 39.6806 28.0714 39.9819 28.0787 40.2844C28.0861 40.5869 28.0382 40.8906 27.9349 41.1956C27.8316 41.4957 27.6865 41.7957 27.4995 42.0958C27.3151 42.3934 27.0974 42.6873 26.8465 42.9775C26.5981 43.2702 26.3325 43.558 26.0497 43.8408L25.9168 43.9736L24.751 42.8078L24.8802 42.6787ZM24.1423 38.9083C24.0833 38.9624 24.0415 39.0386 24.0169 39.137C23.9923 39.2305 23.9849 39.3313 23.9947 39.4395C24.0046 39.5478 24.0304 39.6572 24.0722 39.7679C24.1165 39.8761 24.178 39.9696 24.2567 40.0483C24.3305 40.122 24.4129 40.1602 24.5039 40.1626C24.5973 40.1626 24.6932 40.1405 24.7916 40.0962C24.89 40.052 24.9896 39.9917 25.0905 39.9155C25.1913 39.8343 25.286 39.7519 25.3745 39.6683C25.4631 39.5797 25.5442 39.4961 25.618 39.4174C25.6893 39.3362 25.7459 39.2698 25.7877 39.2182C25.6549 39.1296 25.5135 39.0472 25.3635 38.971C25.2159 38.8923 25.0683 38.8333 24.9207 38.7939C24.7732 38.7546 24.6318 38.741 24.4965 38.7533C24.3612 38.7656 24.2432 38.8173 24.1423 38.9083ZM22.5707 37.3809H20.9327V35.7429H22.5707V37.3809ZM28.8511 35.6309C29.0553 35.7317 29.2766 35.8449 29.5152 35.9703C29.7538 36.0908 29.9911 36.2224 30.2272 36.3651C30.4658 36.5053 30.6958 36.6541 30.9171 36.8115C31.136 36.9664 31.3278 37.1263 31.4926 37.2911C31.7238 37.5223 31.9169 37.7793 32.0718 38.0621C32.2317 38.345 32.3571 38.6475 32.4481 38.9697C32.5416 39.2894 32.6043 39.6227 32.6363 39.9695C32.6683 40.3163 32.672 40.6692 32.6474 41.0283C32.6252 41.3898 32.576 41.7514 32.4998 42.1129C32.426 42.4769 32.3301 42.8336 32.212 43.1828L30.6072 42.9209C30.6958 42.6552 30.7745 42.3749 30.8433 42.0797C30.9122 41.7895 30.9651 41.498 31.002 41.2054C31.0413 40.9102 31.0622 40.6212 31.0647 40.3384C31.0696 40.0531 31.0524 39.785 31.013 39.5341C30.9761 39.2808 30.9134 39.0484 30.8249 38.8369C30.7388 38.6278 30.6244 38.452 30.4818 38.3093C30.3785 38.206 30.2518 38.1089 30.1018 38.0178C29.9542 37.9244 29.787 37.8334 29.6 37.7448C29.4107 37.6538 29.2053 37.5641 28.9839 37.4755C28.7626 37.3821 28.5252 37.2849 28.2719 37.1841L28.8511 35.6309ZM40.0526 22.0535C40.0969 22.0683 40.1768 22.0966 40.2924 22.1384C40.408 22.1753 40.5458 22.2245 40.7056 22.2859C40.863 22.345 41.0364 22.4151 41.2258 22.4962C41.4152 22.5774 41.607 22.6709 41.8013 22.7766C41.9932 22.8799 42.1801 22.9955 42.3621 23.1234C42.5466 23.2488 42.7114 23.3841 42.8565 23.5292C43.0975 23.7752 43.2881 24.0396 43.4283 24.3224C43.571 24.6028 43.6533 24.8893 43.6755 25.182C43.6952 25.4722 43.6509 25.7624 43.5427 26.0527C43.4345 26.3429 43.25 26.6184 42.9893 26.8791C42.763 27.1053 42.5392 27.2529 42.3178 27.3218C42.0989 27.3882 41.8764 27.4017 41.6501 27.3624C41.6648 27.4804 41.6698 27.596 41.6648 27.7091C41.6575 27.8198 41.6316 27.9342 41.5874 28.0522C41.548 28.1703 41.4841 28.2933 41.3955 28.4212C41.3094 28.5466 41.1926 28.6831 41.045 28.8307C40.9417 28.934 40.8397 29.0213 40.7388 29.0926C40.638 29.1639 40.5408 29.2242 40.4474 29.2734C40.7327 29.5636 40.9504 29.8698 41.1004 30.192C41.2529 30.5117 41.3488 30.8389 41.3881 31.1733C41.43 31.5054 41.4213 31.8386 41.3623 32.1731C41.3033 32.5076 41.2049 32.8323 41.0672 33.1471C40.9319 33.4644 40.7622 33.7694 40.5581 34.062C40.3564 34.3523 40.1338 34.6191 39.8903 34.8626C39.514 35.2389 39.1033 35.5242 38.6581 35.7185C38.2154 35.9153 37.7641 36.0173 37.3041 36.0247C36.8491 36.0321 36.3978 35.9423 35.9502 35.7554C35.505 35.5709 35.0918 35.2881 34.7106 34.9069C34.4966 34.6781 34.2999 34.4224 34.1203 34.1395C33.9432 33.8542 33.7846 33.5603 33.6444 33.2578C33.5067 32.9528 33.3886 32.6503 33.2902 32.3502C33.1919 32.0452 33.1156 31.7599 33.0615 31.4943L34.4856 31.3099C34.5421 31.5435 34.6098 31.7833 34.6885 32.0293C34.7672 32.2752 34.8582 32.5138 34.9615 32.745C35.0648 32.9762 35.1804 33.1951 35.3083 33.4017C35.4362 33.6083 35.5776 33.789 35.7325 33.944C35.9121 34.1383 36.1248 34.2772 36.3708 34.3609C36.6192 34.442 36.8774 34.4715 37.1455 34.4494C37.4185 34.4273 37.6891 34.3535 37.9571 34.2281C38.2277 34.1002 38.4749 33.9243 38.6987 33.7005C38.952 33.4472 39.1623 33.1901 39.3295 32.9294C39.4992 32.6663 39.6247 32.4105 39.7058 32.1621C39.7919 31.9137 39.8325 31.6739 39.8276 31.4427C39.8251 31.2139 39.7784 31.0049 39.6874 30.8155L39.6874 30.8229C39.5546 30.5671 39.3775 30.3285 39.1561 30.1072C38.9914 29.9424 38.8007 29.7985 38.5843 29.6755C38.3679 29.5525 38.1367 29.4419 37.8907 29.3435C37.6423 29.2426 37.3853 29.1504 37.1197 29.0668C36.8541 28.9782 36.5897 28.8885 36.3265 28.7975L36.7692 27.2185C36.9783 27.2996 37.1885 27.382 37.4001 27.4656C37.6116 27.5493 37.8169 27.6267 38.0162 27.6981C38.2154 27.7645 38.4072 27.821 38.5917 27.8678C38.7762 27.9145 38.9471 27.9428 39.1045 27.9526C39.2594 27.96 39.3972 27.9453 39.5177 27.9084C39.6407 27.869 39.7415 27.7977 39.8202 27.6944C39.9088 27.5763 39.9567 27.457 39.9641 27.3365C39.969 27.2136 39.9444 27.093 39.8903 26.975C39.8387 26.8545 39.7636 26.7376 39.6653 26.6245C39.5669 26.5064 39.4599 26.3945 39.3443 26.2888C39.2287 26.183 39.1106 26.0822 38.9901 25.9863C38.8721 25.8879 38.7639 25.7969 38.6655 25.7133L39.5472 24.5585C39.6407 24.6175 39.7477 24.695 39.8682 24.7909C39.9862 24.8844 40.1117 24.9828 40.2445 25.0861C40.3797 25.1869 40.5199 25.2853 40.6651 25.3812C40.8102 25.4771 40.9553 25.5558 41.1004 25.6173C41.2455 25.6788 41.3869 25.7169 41.5246 25.7317C41.6624 25.7465 41.794 25.7231 41.9194 25.6616C41.9956 25.5854 42.0534 25.5005 42.0928 25.407C42.1297 25.3111 42.1457 25.2115 42.1408 25.1082C42.1358 25.0049 42.1075 24.9004 42.0559 24.7946C42.0042 24.684 41.9255 24.5757 41.8198 24.47C41.7312 24.3814 41.612 24.2966 41.4619 24.2154C41.3119 24.1293 41.141 24.0469 40.9491 23.9682C40.7573 23.8895 40.5495 23.8145 40.3256 23.7432C40.1018 23.6669 39.8719 23.5944 39.6357 23.5255L40.0526 22.0535ZM37.2377 23.3558V24.743L35.81 24.7467L35.8063 23.3263H37.2082V21.9391L38.636 21.9355L38.6397 23.3558L37.2377 23.3558ZM36.8209 21.6182L36.8208 22.9316H35.5001L35.5001 21.6182H36.8209ZM46.2693 26.5505C46.5472 26.1348 46.7759 25.7315 46.9555 25.3404C47.1375 24.9518 47.2703 24.5853 47.3539 24.241C47.4425 23.8967 47.4843 23.5819 47.4793 23.2965C47.4769 23.0088 47.4302 22.7604 47.3392 22.5513C47.2334 22.6571 47.119 22.7665 46.9961 22.8797C46.8755 22.9953 46.7747 23.0887 46.6935 23.16C46.4304 23.3839 46.1623 23.5585 45.8893 23.6839C45.6187 23.8118 45.3482 23.8856 45.0776 23.9053C44.8071 23.92 44.5415 23.8758 44.2808 23.7725C44.0201 23.6692 43.7716 23.4995 43.5355 23.2633C43.3855 23.1133 43.2478 22.9436 43.1223 22.7542C42.9969 22.5648 42.8887 22.3656 42.7977 22.1566C42.7091 21.9451 42.6427 21.7286 42.5985 21.5073C42.5567 21.2834 42.5419 21.0646 42.5542 20.8506C42.5665 20.6366 42.612 20.4337 42.6907 20.2418C42.7694 20.0451 42.8875 19.868 43.0449 19.7106C43.2711 19.4843 43.5269 19.3269 43.8122 19.2384C44.0975 19.1498 44.3939 19.1166 44.7013 19.1388C45.0088 19.156 45.3211 19.2199 45.6384 19.3306C45.9532 19.4388 46.257 19.5778 46.5497 19.7475C46.8423 19.9123 47.1129 20.0992 47.3613 20.3083C47.6122 20.5149 47.8249 20.7251 47.9995 20.9391C48.2578 21.2564 48.4619 21.5909 48.6119 21.9426C48.7669 22.2943 48.8714 22.6546 48.9255 23.0235C48.9846 23.3925 48.9969 23.7663 48.9624 24.1451C48.9305 24.5263 48.8591 24.9026 48.7484 25.274C48.6402 25.6478 48.4939 26.0155 48.3094 26.3771C48.1274 26.7362 47.9159 27.0805 47.6749 27.4101L46.2693 26.5505ZM44.2144 20.8801C44.1529 20.9219 44.1123 20.9994 44.0926 21.1125C44.0705 21.2232 44.0705 21.3462 44.0926 21.4814C44.1123 21.6143 44.1492 21.7471 44.2033 21.8799C44.2599 22.0102 44.3312 22.1184 44.4173 22.2045C44.5009 22.2882 44.5968 22.3324 44.705 22.3373C44.8108 22.3398 44.9215 22.3177 45.0371 22.2709C45.1527 22.2242 45.2707 22.1603 45.3912 22.0791C45.5117 21.993 45.6261 21.9032 45.7343 21.8098C45.8401 21.7139 45.9385 21.6204 46.0295 21.5294L46.2582 21.3007C46.0688 21.1851 45.8782 21.083 45.6864 20.9945C45.497 20.9035 45.3138 20.8358 45.1367 20.7915C44.9596 20.7473 44.7923 20.7301 44.6349 20.7399C44.4775 20.7497 44.3373 20.7965 44.2144 20.8801ZM51.6892 18.2012C51.6351 18.2553 51.5601 18.323 51.4642 18.4041C51.3683 18.4853 51.2404 18.5591 51.0805 18.6255C51.3314 18.9846 51.5183 19.3756 51.6413 19.7987C51.7692 20.2217 51.843 20.662 51.8626 21.1194C51.8848 21.5794 51.8565 22.0504 51.7778 22.5324C51.6991 23.0145 51.581 23.4941 51.4236 23.9712L49.8151 23.713C49.9012 23.4498 49.9799 23.1768 50.0512 22.894C50.125 22.6136 50.1828 22.3344 50.2246 22.0565C50.2713 21.7786 50.2996 21.5068 50.3095 21.2412C50.3242 20.9755 50.3156 20.7234 50.2836 20.4849C50.2517 20.2463 50.1939 20.0262 50.1102 19.8245C50.0291 19.6253 49.9159 19.4531 49.7708 19.308C49.6749 19.2121 49.5347 19.1088 49.3503 18.9981C49.1658 18.8874 48.9604 18.7755 48.7342 18.6624C48.5079 18.5492 48.2742 18.441 48.0332 18.3377C47.7922 18.2344 47.5683 18.1434 47.3618 18.0647L47.9631 16.5337C48.3566 16.7304 48.696 16.8829 48.9813 16.9912C49.2691 17.0969 49.5138 17.167 49.7155 17.2014C49.9172 17.2359 50.0807 17.2396 50.2062 17.2125C50.3316 17.1805 50.4324 17.1264 50.5087 17.0502L50.5972 16.9616L51.763 18.1274L51.6892 18.2012ZM50.5763 16.9826C50.6673 16.8916 50.7768 16.7821 50.9047 16.6542C51.0326 16.5214 51.1666 16.38 51.3068 16.2299C51.447 16.075 51.5872 15.9151 51.7274 15.7503C51.8676 15.5856 51.9942 15.422 52.1074 15.2597C52.223 15.0949 52.3201 14.9362 52.3988 14.7838C52.4775 14.6313 52.5267 14.4911 52.5464 14.3632C52.2562 14.7174 51.9684 15.0223 51.6831 15.2781C51.4002 15.5314 51.1162 15.7122 50.8309 15.8204C50.548 15.9262 50.264 15.9471 49.9787 15.8832C49.6934 15.8143 49.4019 15.6335 49.1043 15.3408C48.969 15.2056 48.8436 15.0531 48.728 14.8834C48.6099 14.7112 48.5091 14.5292 48.4255 14.3374C48.3419 14.1406 48.2791 13.9401 48.2373 13.736C48.1931 13.5294 48.1771 13.3265 48.1894 13.1273C48.2041 12.9256 48.2496 12.7325 48.3259 12.5481C48.4021 12.3587 48.5177 12.1865 48.6727 12.0316C48.867 11.8373 49.0809 11.6971 49.3146 11.611C49.5507 11.5225 49.7967 11.4782 50.0524 11.4782C50.3082 11.4733 50.5677 11.5065 50.8309 11.5778C51.0965 11.6467 51.3535 11.7414 51.6019 11.8619C51.8503 11.9824 52.0864 12.1226 52.3103 12.2824C52.5341 12.4423 52.7345 12.6108 52.9116 12.7879C53.2068 13.083 53.422 13.3818 53.5572 13.6844C53.695 13.9844 53.7675 14.2857 53.7749 14.5882C53.7823 14.8907 53.7343 15.1945 53.631 15.4995C53.5277 15.7995 53.3826 16.0996 53.1957 16.3996C53.0112 16.6972 52.7936 16.9912 52.5427 17.2814C52.2943 17.5741 52.0287 17.8618 51.7458 18.1447L51.613 18.2775L50.4472 17.1117L50.5763 16.9826ZM49.8385 13.2121C49.7794 13.2662 49.7376 13.3425 49.713 13.4409C49.6884 13.5343 49.6811 13.6352 49.6909 13.7434C49.7007 13.8516 49.7266 13.9611 49.7684 14.0717C49.8126 14.1799 49.8741 14.2734 49.9528 14.3521C50.0266 14.4259 50.109 14.464 50.2 14.4665C50.2935 14.4665 50.3894 14.4443 50.4878 14.4001C50.5862 14.3558 50.6858 14.2955 50.7866 14.2193C50.8874 14.1381 50.9821 14.0557 51.0707 13.9721C51.1592 13.8836 51.2404 13.8 51.3142 13.7213C51.3855 13.6401 51.4421 13.5737 51.4839 13.522C51.3511 13.4335 51.2096 13.3511 51.0596 13.2749C50.912 13.1961 50.7645 13.1371 50.6169 13.0978C50.4693 13.0584 50.3279 13.0449 50.1926 13.0572C50.0574 13.0695 49.9393 13.1211 49.8385 13.2121ZM48.2668 11.6848H46.6288V10.0468H48.2668V11.6848Z" fill="white"/>
</g>
</g>
<defs>
<filter id="filter0_d_2041_2015" x="-3.75" y="0.25" width="96.5435" height="96.5436" filterUnits="userSpaceOnUse" color-interpolation-filters="sRGB">
<feFlood flood-opacity="0" result="BackgroundImageFix"/>
<feColorMatrix in="SourceAlpha" type="matrix" values="0 0 0 0 0 0 0 0 0 0 0 0 0 0 0 0 0 0 127 0" result="hardAlpha"/>
<feOffset dy="4"/>
<feGaussianBlur stdDeviation="2"/>
<feComposite in2="hardAlpha" operator="out"/>
<feColorMatrix type="matrix" values="0 0 0 0 0 0 0 0 0 0 0 0 0 0 0 0 0 0 0.55 0"/>
<feBlend mode="normal" in2="BackgroundImageFix" result="effect1_dropShadow_2041_2015"/>
<feBlend mode="normal" in="SourceGraphic" in2="effect1_dropShadow_2041_2015" result="shape"/>
</filter>
<filter id="filter1_d_2041_2015" x="6.85986" y="8.27588" width="52.8994" height="52.8994" filterUnits="userSpaceOnUse" color-interpolation-filters="sRGB">
<feFlood flood-opacity="0" result="BackgroundImageFix"/>
<feColorMatrix in="SourceAlpha" type="matrix" values="0 0 0 0 0 0 0 0 0 0 0 0 0 0 0 0 0 0 127 0" result="hardAlpha"/>
<feOffset dy="2"/>
<feGaussianBlur stdDeviation="1"/>
<feComposite in2="hardAlpha" operator="out"/>
<feColorMatrix type="matrix" values="0 0 0 0 0 0 0 0 0 0 0 0 0 0 0 0 0 0 0.62 0"/>
<feBlend mode="normal" in2="BackgroundImageFix" result="effect1_dropShadow_2041_2015"/>
<feBlend mode="normal" in="SourceGraphic" in2="effect1_dropShadow_2041_2015" result="shape"/>
</filter>
<linearGradient id="paint0_linear_2041_2015" x1="79.6726" y1="4.32955" x2="79.6726" y2="1.19968" gradientUnits="userSpaceOnUse">
<stop offset="0.01" stop-color="#BA192D"/>
<stop offset="1" stop-color="#690E19"/>
</linearGradient>
<linearGradient id="paint1_linear_2041_2015" x1="0.250441" y1="78.457" x2="5.27274" y2="78.457" gradientUnits="userSpaceOnUse">
<stop stop-color="#690E19"/>
<stop offset="0.99" stop-color="#BA192D"/>
</linearGradient>
<linearGradient id="paint2_linear_2041_2015" x1="50.6069" y1="48.4549" x2="-7.2377" y2="-5.08886" gradientUnits="userSpaceOnUse">
<stop stop-color="#FF0000"/>
<stop offset="1" stop-color="#B40404"/>
</linearGradient>
<clipPath id="clip0_2041_2015">
<rect width="96.0262" height="96.0262" fill="white" transform="translate(0.25 0.25)"/>
</clipPath>
</defs>
</svg>
