<?xml version="1.0" standalone="no"?>
<!DOCTYPE svg PUBLIC "-//W3C//DTD SVG 20010904//EN"
 "http://www.w3.org/TR/2001/REC-SVG-20010904/DTD/svg10.dtd">
<svg version="1.0" xmlns="http://www.w3.org/2000/svg"
 width="1280.000000pt" height="1280.000000pt" viewBox="0 0 1280.000000 1280.000000"
 preserveAspectRatio="xMidYMid meet">
<metadata>
Created by potrace 1.15, written by Peter Selinger 2001-2017
</metadata>
<g transform="translate(0.000000,1280.000000) scale(0.100000,-0.100000)"
fill="#000000" stroke="none">
<path d="M2185 11819 c-175 -19 -309 -81 -441 -202 -171 -158 -244 -321 -244
-544 0 -105 19 -184 62 -266 87 -163 235 -258 395 -256 37 1 79 4 93 8 21 6
17 9 -25 15 -27 4 -78 20 -112 37 -206 99 -280 408 -156 653 34 66 124 154
198 193 110 58 202 78 360 78 115 0 156 -4 230 -24 229 -60 389 -187 485 -386
157 -323 45 -725 -307 -1104 -48 -52 -178 -173 -288 -269 -380 -332 -511 -450
-642 -585 -73 -74 -128 -127 -123 -118 27 51 192 231 337 368 585 553 734 725
863 995 90 189 125 406 90 553 -50 201 -227 367 -456 425 -288 74 -557 -59
-644 -320 -19 -54 -21 -81 -18 -161 4 -87 8 -103 40 -160 21 -40 50 -75 75
-92 45 -32 113 -51 127 -37 7 7 4 10 -7 10 -30 0 -92 37 -125 75 -52 59 -65
99 -65 205 0 79 4 106 26 163 75 192 222 297 419 297 95 0 160 -16 257 -62
219 -105 362 -357 330 -583 -24 -176 -99 -336 -257 -547 -36 -49 -69 -88 -73
-88 -4 0 -10 16 -13 35 -4 20 -21 51 -37 70 l-31 35 29 10 c70 26 85 34 104
61 11 16 18 33 14 39 -9 14 -131 50 -171 50 -18 0 -56 -9 -84 -20 -61 -24 -98
-26 -107 -5 -14 37 58 81 197 120 148 41 205 76 240 146 19 36 55 217 46 226
-10 10 -65 -9 -110 -38 -26 -16 -48 -29 -49 -29 -2 0 -1 29 1 64 6 87 -18 156
-75 217 -66 71 -127 94 -243 93 -84 0 -102 -3 -160 -30 -195 -91 -236 -248
-102 -387 96 -100 211 -107 271 -17 15 23 15 24 -4 15 -80 -34 -155 3 -155 76
0 21 2 39 5 39 2 0 19 -9 37 -20 47 -29 92 -26 117 6 29 37 26 65 -9 96 -58
51 -24 132 65 157 119 33 209 -82 209 -264 0 -100 -16 -137 -91 -217 -100
-104 -202 -164 -392 -230 -230 -79 -343 -178 -345 -301 -1 -138 133 -249 209
-172 30 30 31 54 4 89 -24 30 -63 34 -97 10 -19 -13 -26 -13 -38 -3 -59 49
-19 170 70 216 61 31 186 13 239 -35 11 -9 34 -47 53 -84 48 -96 118 -168 162
-168 16 0 34 58 30 94 l-4 34 56 -4 c87 -8 122 -14 118 -24 -8 -23 -186 -206
-322 -329 -254 -233 -567 -592 -733 -841 -139 -209 -227 -383 -319 -626 -177
-472 -189 -846 -43 -1257 53 -149 49 -144 89 -102 l33 34 -26 88 c-125 413 25
989 291 1120 51 25 68 28 157 28 55 0 120 -6 143 -13 52 -16 126 -80 155 -137
26 -49 30 -146 7 -169 -13 -14 -15 -12 -17 14 -4 51 -31 90 -79 111 -61 27
-108 18 -156 -32 -94 -98 -35 -246 112 -278 93 -21 186 26 233 119 25 49 28
63 24 125 -10 173 -117 280 -307 307 -255 38 -474 -114 -612 -422 -27 -60 -28
-62 -23 -25 21 142 135 487 211 639 120 240 347 508 642 758 404 344 541 467
728 653 266 266 384 416 487 621 158 315 149 623 -27 938 -120 214 -423 401
-731 451 -98 16 -158 17 -280 4z"/>
<path d="M4575 11766 c-110 -28 -181 -73 -220 -140 -36 -63 -39 -98 -16 -150
43 -99 159 -115 248 -34 29 27 37 69 23 113 -14 43 -4 60 55 86 84 39 241 12
326 -56 24 -19 49 -35 54 -35 6 1 23 11 39 25 26 21 28 26 16 40 -24 29 -133
101 -185 122 -100 42 -240 54 -340 29z"/>
<path d="M5120 11510 c-11 -11 -20 -30 -20 -43 0 -29 39 -67 68 -67 31 0 62
35 62 68 0 57 -69 83 -110 42z"/>
<path d="M10753 11440 c-125 -26 -222 -126 -257 -265 -9 -33 -25 -159 -36
-280 -42 -456 -77 -625 -162 -787 -27 -52 -101 -131 -153 -166 -18 -11 -16
-12 15 -7 51 8 106 51 155 119 84 119 123 218 189 486 68 269 130 399 223 462
77 54 126 60 292 38 150 -19 262 1 349 64 42 30 159 172 149 182 -2 3 -26 -9
-53 -25 -68 -42 -162 -65 -232 -56 -31 4 -109 27 -174 51 -83 31 -140 46 -194
51 l-75 6 47 31 c26 17 77 38 113 47 l66 17 -53 15 c-69 21 -157 28 -209 17z"/>
<path d="M5212 11357 c-27 -8 -33 -15 -29 -31 34 -144 38 -176 32 -244 l-6
-73 52 3 c51 3 53 4 62 38 22 84 -23 321 -61 319 -9 -1 -32 -6 -50 -12z"/>
<path d="M8375 11293 c-82 -42 -130 -130 -118 -210 22 -145 182 -303 331 -328
49 -8 53 1 16 36 -76 69 -83 191 -17 270 31 36 94 68 136 69 24 0 27 4 27 34
0 123 -207 157 -318 53 l-24 -22 4 58 c1 31 1 57 -2 57 -3 -1 -18 -8 -35 -17z"/>
<path d="M3698 11089 c-62 -10 -101 -39 -128 -95 -65 -133 73 -269 214 -210
18 8 41 24 49 36 16 23 16 23 61 6 55 -21 95 -66 141 -161 58 -118 78 -209 78
-370 1 -127 -2 -147 -27 -220 -99 -289 -298 -507 -597 -657 l-101 -50 33 -34
c18 -19 39 -34 47 -34 18 0 186 98 272 159 36 25 109 88 162 140 l97 93 88 10
c191 20 525 -30 696 -106 56 -25 61 -24 81 11 8 15 -25 33 -114 62 -208 69
-450 93 -660 65 -28 -3 -31 -2 -14 5 38 17 264 41 382 41 412 0 773 -109 1025
-309 78 -62 177 -183 177 -216 0 -11 22 -67 49 -125 27 -58 52 -114 56 -124 5
-17 10 -16 45 19 21 21 44 51 51 66 6 16 13 29 16 29 2 0 21 -9 43 -20 48 -24
136 -35 172 -21 26 10 26 10 13 54 -19 64 -43 107 -78 144 l-31 33 32 31 c28
28 54 84 46 99 -1 3 -24 17 -51 30 -52 27 -150 33 -188 12 -17 -9 -30 -5 -70
20 -220 138 -584 256 -937 304 -180 25 -477 23 -628 -4 -63 -11 -116 -19 -118
-17 -2 2 43 26 100 54 184 92 394 128 643 111 210 -14 349 -41 713 -140 308
-83 575 -24 825 183 54 45 58 57 19 57 -16 0 -53 8 -83 19 -30 10 -72 21 -93
25 l-39 7 29 18 c78 48 158 170 189 291 17 64 33 240 22 240 -3 0 -40 -19 -82
-41 -42 -23 -78 -39 -81 -37 -2 3 4 20 13 39 12 23 18 57 18 104 0 81 -26 137
-93 197 -100 90 -225 133 -382 131 -103 -1 -207 -21 -203 -38 1 -5 28 -18 60
-30 96 -35 154 -67 210 -119 92 -83 118 -161 88 -262 -28 -98 -118 -203 -243
-282 -115 -74 -210 -95 -497 -112 -196 -11 -416 -40 -537 -71 -42 -10 -80 -19
-84 -19 -4 0 32 25 80 55 208 130 402 310 505 466 58 88 89 154 77 166 -9 9
-84 20 -93 14 -5 -3 -17 -26 -27 -51 -10 -25 -47 -90 -84 -145 -83 -126 -292
-338 -447 -453 -122 -90 -116 -86 -236 -137 -48 -20 -117 -54 -154 -76 -37
-22 -70 -38 -71 -36 -2 2 7 31 20 63 56 137 70 217 70 399 1 148 -2 180 -22
250 -89 309 -299 499 -514 464z"/>
<path d="M5202 10958 c-17 -17 -15 -64 4 -82 35 -36 94 -9 94 43 0 35 -17 51
-55 51 -17 0 -36 -5 -43 -12z"/>
<path d="M6645 10921 c-46 -11 -68 -26 -108 -71 -52 -57 -49 -66 20 -62 l58 4
-31 -34 c-111 -117 -87 -297 41 -310 27 -3 30 0 35 33 9 54 41 101 87 127 85
47 184 38 253 -24 44 -40 55 -33 46 29 -25 166 -257 344 -401 308z"/>
<path d="M9325 10825 c-92 -19 -155 -38 -155 -47 0 -5 12 -5 28 -1 83 23 210
-18 279 -89 l32 -33 -107 0 c-102 -1 -114 -3 -247 -50 -129 -46 -147 -49 -235
-50 -102 0 -127 8 -202 67 -41 32 -47 25 -21 -25 29 -57 56 -87 111 -123 77
-52 166 -79 420 -130 332 -66 414 -97 519 -197 104 -98 138 -192 131 -362 -8
-164 -70 -340 -185 -520 -25 -38 -54 -80 -65 -91 -13 -15 -16 -24 -9 -29 14
-8 106 70 170 144 144 167 241 375 271 582 18 119 8 330 -19 434 -42 160 -140
322 -244 406 -132 106 -308 149 -472 114z"/>
<path d="M7132 10461 c120 -141 183 -334 159 -486 -25 -163 -126 -275 -301
-336 -57 -20 -93 -24 -295 -30 -245 -7 -300 -17 -375 -64 -113 -71 -168 -229
-125 -356 31 -91 101 -162 270 -274 479 -316 1412 -508 2045 -419 176 24 380
76 380 95 0 16 -44 79 -56 79 -6 0 -43 -11 -82 -24 -233 -80 -620 -114 -957
-86 -259 22 -560 86 -756 161 -78 29 -133 59 -84 46 47 -14 361 -57 483 -67
146 -13 268 -4 462 30 116 21 295 74 305 90 3 5 -9 26 -27 46 l-34 36 -89 -30
c-179 -60 -236 -67 -510 -66 -211 0 -270 4 -380 22 -247 43 -463 107 -640 191
-156 74 -185 95 -185 134 1 88 115 126 238 79 29 -11 107 -55 174 -98 177
-112 254 -146 342 -152 87 -5 154 8 243 48 l67 31 -65 65 c-35 35 -79 75 -96
87 -18 12 -33 25 -33 30 0 4 35 7 78 7 94 0 233 28 327 65 73 29 240 119 250
135 3 5 -5 14 -17 21 -13 6 -63 39 -112 71 -119 81 -183 109 -247 110 l-51 0
30 31 c78 81 126 279 106 430 l-7 47 -36 -28 c-20 -16 -50 -38 -66 -49 l-31
-21 4 64 c4 57 1 72 -27 128 -39 79 -133 171 -222 215 -84 42 -98 40 -57 -8z"/>
<path d="M1965 10459 c-224 -75 -365 -206 -405 -378 -44 -187 47 -443 221
-626 59 -62 68 -68 83 -56 45 37 41 48 -41 135 -89 93 -132 168 -162 276 -36
130 -25 254 35 371 52 104 190 218 327 270 31 12 57 26 57 30 0 14 -18 10
-115 -22z"/>
<path d="M8398 10224 c-125 -30 -227 -105 -275 -203 -38 -76 -40 -187 -5 -244
62 -99 204 -123 277 -47 26 27 30 39 30 86 0 50 -3 59 -33 85 -18 16 -46 32
-62 36 -37 7 -46 33 -25 73 37 72 155 114 320 114 135 1 229 -25 291 -78 l42
-35 36 54 c20 30 36 57 36 60 0 8 -91 51 -145 68 -143 46 -369 60 -487 31z"/>
<path d="M9150 10123 c-59 -19 -90 -57 -90 -108 0 -63 45 -104 112 -105 39 0
52 5 77 31 25 25 31 39 31 74 0 35 -6 49 -31 74 -17 17 -37 31 -44 31 -7 0
-19 2 -27 4 -7 3 -20 2 -28 -1z"/>
<path d="M10508 10080 c-14 -9 -15 -15 -6 -41 48 -138 -146 -281 -285 -210
-32 16 -39 17 -44 5 -6 -17 26 -70 69 -110 160 -151 413 -166 494 -29 22 38
44 115 33 115 -2 0 -28 -9 -57 -20 l-53 -20 18 32 c12 22 18 56 18 103 0 77
-19 122 -66 157 -30 23 -97 33 -121 18z"/>
<path d="M9330 9899 l-21 -41 64 -61 c106 -101 147 -199 147 -347 -1 -216
-133 -460 -324 -596 l-29 -21 39 -27 c21 -14 44 -26 52 -26 21 0 184 171 235
248 97 146 139 272 141 422 0 124 -26 211 -95 315 -46 68 -155 175 -179 175
-5 0 -19 -18 -30 -41z"/>
<path d="M8477 9548 c21 -59 26 -92 27 -173 1 -94 -1 -105 -31 -165 -18 -36
-51 -87 -74 -115 l-41 -49 29 -23 c36 -30 69 -38 88 -23 30 25 89 125 107 184
29 90 21 191 -20 280 -33 69 -90 156 -103 156 -4 0 4 -33 18 -72z"/>
<path d="M4882 9588 c-28 -28 -2 -88 38 -88 40 0 66 60 38 88 -7 7 -24 12 -38
12 -14 0 -31 -5 -38 -12z"/>
<path d="M4984 9519 c-18 -20 -17 -21 31 -62 28 -23 72 -65 98 -94 44 -47 51
-51 73 -41 13 6 24 14 24 18 0 21 -177 200 -199 200 -4 0 -16 -9 -27 -21z"/>
<path d="M3240 9342 c-38 -38 -38 -66 -1 -103 33 -33 50 -35 90 -14 67 34 50
127 -26 141 -27 5 -37 1 -63 -24z"/>
<path d="M2225 9270 c-15 -28 -20 -60 -10 -60 2 0 51 -13 107 -29 180 -51 280
-64 451 -58 146 4 358 37 381 58 6 5 2 25 -9 49 -13 30 -23 39 -34 34 -9 -3
-63 -15 -121 -26 -78 -15 -148 -21 -275 -22 -184 -1 -280 14 -404 60 -35 13
-65 24 -67 24 -2 0 -10 -13 -19 -30z"/>
<path d="M5191 9286 c-21 -25 -9 -69 21 -80 50 -17 89 42 52 78 -19 20 -58 21
-73 2z"/>
<path d="M5244 9180 c-7 -7 -4 -34 9 -83 15 -59 18 -96 14 -207 -8 -216 -51
-334 -163 -445 -97 -97 -234 -157 -320 -140 -20 3 -49 21 -69 40 -39 40 -84
46 -125 18 -73 -50 -67 -117 13 -154 150 -67 437 47 588 235 147 182 191 452
112 699 -15 47 -36 60 -59 37z"/>
<path d="M2263 9073 c3 -43 9 -93 13 -111 l6 -33 -33 20 c-98 57 -248 66 -344
20 -155 -73 -246 -264 -217 -454 22 -138 83 -220 189 -251 79 -23 150 -13 243
33 123 62 167 152 120 247 -25 52 -42 60 -34 16 18 -90 -82 -159 -174 -121
l-30 13 49 47 c60 58 66 96 20 142 -33 32 -57 36 -87 14 -52 -40 -146 -3 -164
66 -43 160 97 258 310 215 199 -41 293 -139 366 -383 24 -79 27 -111 34 -323
8 -245 18 -307 62 -399 69 -142 219 -200 355 -136 52 24 93 71 93 107 0 31
-24 69 -53 84 -64 33 -139 -29 -116 -95 15 -43 -1 -61 -55 -61 -79 0 -166 82
-181 171 -11 63 17 139 75 202 55 61 77 69 224 87 99 12 159 36 201 80 28 29
28 30 9 51 -23 26 -74 49 -110 49 l-26 0 27 32 c14 17 44 66 65 108 24 48 54
91 80 112 l41 35 -32 13 c-68 29 -176 5 -255 -55 -18 -14 -35 -25 -38 -25 -3
0 -6 25 -6 55 0 63 -17 111 -49 140 l-22 19 -39 -44 c-22 -25 -53 -72 -70
-104 -26 -51 -30 -70 -30 -136 0 -62 -4 -83 -19 -101 -19 -23 -20 -23 -40 -5
-35 32 -45 82 -41 201 11 264 -5 338 -86 402 -34 27 -219 133 -232 133 -2 0
-2 -35 1 -77z"/>
<path d="M4205 9126 c-23 -17 -24 -71 -2 -93 24 -24 76 -21 99 6 22 28 23 50
2 79 -18 26 -69 30 -99 8z"/>
<path d="M4392 9084 l3 -47 63 -13 c138 -28 261 -146 262 -250 0 -28 -6 -35
-47 -55 -36 -18 -51 -33 -61 -60 -18 -48 -2 -109 41 -156 63 -68 168 -52 227
34 22 32 25 47 25 127 0 84 -3 96 -35 160 -43 87 -143 189 -225 233 -62 32
-138 57 -213 68 l-43 7 3 -48z"/>
<path d="M4032 9069 c-34 -16 -83 -50 -110 -74 -46 -41 -109 -122 -101 -128 2
-2 20 -16 40 -30 l36 -27 74 73 c43 42 95 83 124 97 28 13 51 24 53 26 5 3
-36 82 -47 88 -5 3 -36 -8 -69 -25z"/>
<path d="M8258 8970 c-24 -25 -29 -36 -23 -58 16 -66 89 -87 132 -38 31 36 29
61 -6 97 -37 37 -65 37 -103 -1z"/>
<path d="M3770 8790 c-32 -32 -25 -66 18 -89 35 -18 81 11 82 52 0 23 -35 57
-60 57 -11 0 -29 -9 -40 -20z"/>
<path d="M8991 8784 c-25 -20 -31 -34 -31 -64 0 -97 130 -126 175 -39 13 25
14 37 5 65 -22 67 -93 85 -149 38z"/>
<path d="M3734 8624 c-4 -20 -4 -82 -1 -138 12 -232 127 -429 307 -525 61 -32
170 -64 204 -59 13 2 0 9 -34 17 -122 30 -234 109 -299 209 -75 118 -111 286
-91 432 13 93 10 100 -47 100 -29 0 -33 -3 -39 -36z"/>
<path d="M3244 8441 c-35 -21 -68 -83 -59 -110 18 -57 99 -69 123 -18 34 71
159 -9 198 -126 12 -35 15 -72 12 -128 -6 -102 -47 -185 -134 -273 -145 -147
-360 -252 -695 -341 -230 -61 -376 -151 -442 -273 -65 -120 -52 -330 29 -452
24 -36 100 -100 119 -100 4 0 -14 23 -39 50 -57 65 -89 144 -90 230 -1 116 51
181 162 202 60 11 60 11 51 40 -7 27 -6 28 14 22 58 -19 100 -24 202 -24 61 0
120 3 133 6 43 12 20 93 -38 134 -17 12 -30 24 -28 25 2 2 27 -3 56 -10 132
-35 286 -28 390 16 93 40 113 82 66 138 l-26 31 36 0 c68 0 141 43 172 102 13
25 12 28 -17 52 -17 14 -34 26 -37 26 -4 0 -13 4 -21 9 -10 6 2 24 50 72 221
221 207 585 -26 695 -60 29 -119 31 -161 5z"/>
<path d="M8881 8080 l-44 -20 59 -38 c160 -104 232 -256 221 -467 -13 -259
-136 -518 -324 -683 l-58 -51 35 -15 c99 -41 239 -28 369 34 162 78 265 170
317 285 l22 50 24 -54 24 -53 43 48 c91 103 167 270 191 417 12 74 13 147 2
147 -4 0 -23 -30 -41 -67 -94 -191 -243 -330 -442 -410 -50 -20 -189 -55 -189
-48 0 2 29 24 64 49 90 64 148 135 208 253 46 91 52 110 56 180 4 73 2 82 -29
142 -39 73 -55 85 -65 44 -14 -63 -37 -124 -55 -145 l-19 -23 11 30 c17 48 12
156 -11 218 -26 69 -88 141 -151 172 -62 32 -154 34 -218 5z"/>
<path d="M8540 8083 c-32 -12 -73 -47 -101 -86 -33 -46 -39 -108 -13 -145 19
-28 65 -52 99 -52 33 0 75 42 75 75 0 21 4 25 32 25 76 0 179 -84 223 -183 47
-107 59 -259 30 -372 -103 -398 -559 -695 -1304 -850 -323 -67 -515 -169 -799
-422 l-70 -63 -10 43 c-51 201 -79 490 -64 639 26 240 100 365 261 442 61 29
74 31 171 31 124 0 171 -17 249 -90 69 -65 96 -129 95 -230 -2 -183 -108 -318
-238 -300 -40 5 -48 4 -39 -6 20 -21 106 -23 146 -4 55 26 121 103 146 171 32
83 27 216 -12 290 -57 111 -180 195 -313 214 -206 28 -364 -71 -447 -281 -84
-210 -87 -457 -11 -841 l26 -126 -60 -79 c-144 -192 -278 -479 -316 -683 -31
-160 -16 -572 26 -750 36 -154 111 -356 187 -507 23 -46 40 -83 38 -83 -2 0
-43 16 -92 35 -49 19 -90 33 -92 32 -1 -2 13 -45 32 -97 19 -52 53 -149 75
-215 23 -66 68 -174 101 -240 51 -104 59 -129 60 -180 1 -33 4 -71 8 -85 7
-24 4 -25 -64 -42 -88 -22 -193 -75 -269 -134 l-59 -46 99 -53 c55 -29 135
-73 179 -99 92 -53 159 -76 224 -76 50 0 132 19 171 40 14 7 -15 -30 -65 -81
-49 -52 -110 -116 -134 -142 l-43 -47 328 3 c328 4 398 10 529 48 50 14 130
54 172 85 l32 24 88 -59 c212 -142 363 -317 414 -481 52 -167 37 -474 -25
-515 -12 -8 -47 -20 -78 -26 -75 -15 -153 2 -215 46 -179 128 -244 163 -353
191 -53 13 -73 14 -115 5 -27 -6 -60 -19 -72 -29 l-22 -17 34 -72 c46 -94 126
-167 285 -258 138 -79 188 -126 218 -208 91 -242 22 -464 -172 -553 -110 -50
-235 -30 -280 46 l-18 32 36 37 c66 67 55 155 -26 208 -31 21 -46 25 -80 20
-76 -10 -137 -105 -122 -188 24 -121 159 -239 312 -270 255 -53 515 209 677
681 109 319 280 591 479 761 208 178 387 197 641 66 139 -72 235 -185 235
-279 0 -47 -31 -117 -62 -139 -34 -25 -112 -37 -122 -20 -5 7 1 11 13 11 58 0
82 90 36 135 -44 45 -117 28 -150 -35 -44 -84 27 -180 133 -180 88 0 156 52
185 142 36 114 14 202 -72 288 -31 31 -67 64 -81 74 -14 9 -5 7 19 -6 173 -91
220 -280 111 -451 -39 -62 -100 -92 -173 -84 -52 5 -70 18 -140 106 -16 19
-26 22 -57 18 -148 -20 -184 -160 -79 -308 28 -40 16 -52 -53 -52 -83 0 -149
46 -182 125 -28 67 -14 160 31 210 14 16 14 18 1 18 -21 0 -115 -85 -133 -120
-90 -174 39 -437 270 -551 75 -37 96 -43 168 -47 134 -7 231 41 329 162 245
305 249 749 8 987 -118 117 -259 166 -448 156 l-102 -6 12 22 c6 12 33 53 60
92 43 61 99 198 86 210 -7 7 -265 -24 -336 -40 -210 -49 -298 -154 -398 -474
-54 -175 -96 -293 -101 -288 -2 2 12 51 31 108 19 57 50 172 70 254 60 244 67
267 100 335 146 299 344 423 676 423 329 1 560 -144 586 -367 9 -75 22 -59 30
34 8 87 -11 174 -53 254 -40 75 -165 195 -245 236 l-66 34 61 66 c56 60 167
243 155 256 -3 2 -32 -3 -65 -11 -47 -12 -108 -15 -284 -13 -200 3 -229 1
-274 -16 -138 -53 -295 -207 -461 -453 -37 -54 -68 -99 -69 -101 -1 -1 1 17 6
40 22 117 5 246 -50 363 -43 91 -137 213 -153 197 -16 -16 -66 -194 -74 -261
-3 -34 -9 -61 -13 -61 -3 0 -14 20 -24 45 -47 114 -135 187 -360 301 -84 42
-176 92 -206 111 -29 19 -56 32 -58 29 -3 -3 -6 -54 -6 -113 -1 -209 60 -331
307 -608 63 -71 114 -131 112 -132 -2 -2 -21 3 -43 11 -22 8 -71 17 -109 21
-38 4 -83 13 -100 21 -78 34 -363 365 -349 403 71 180 92 335 76 561 -11 161
-21 235 -77 570 -47 280 -36 581 31 879 15 65 19 72 58 94 137 80 382 119 539
86 112 -24 261 -128 335 -233 20 -29 21 -30 47 -13 14 10 26 24 26 33 0 8 -35
50 -77 93 -64 65 -95 87 -173 124 -131 64 -230 88 -360 89 -111 0 -210 -18
-288 -52 -25 -11 -47 -18 -50 -15 -6 6 52 171 93 260 36 80 104 194 146 244
16 19 27 37 24 39 -5 5 -30 -24 -113 -127 -59 -74 -159 -268 -196 -381 -23
-72 -27 -77 -88 -120 -86 -61 -221 -192 -273 -265 -111 -156 -185 -378 -201
-601 -7 -88 -6 -92 17 -107 13 -10 42 -17 64 -17 l41 0 12 118 c6 65 23 159
37 208 32 110 114 284 180 380 51 74 134 168 141 161 3 -2 -4 -53 -13 -113
-14 -83 -18 -167 -18 -349 0 -259 13 -427 51 -655 36 -220 47 -359 41 -530 -5
-150 -31 -298 -56 -323 -13 -13 -58 60 -145 234 -82 165 -133 302 -175 469
l-29 114 -48 12 c-27 7 -59 15 -71 19 -21 7 -23 5 -17 -26 12 -65 64 -260 74
-279 20 -37 9 -38 -27 -4 -21 19 -84 57 -140 85 -112 56 -120 63 -188 164 -46
69 -145 262 -145 284 0 6 18 34 40 63 94 124 182 340 225 552 49 243 54 473
19 799 l-17 148 29 30 c49 52 172 127 240 149 37 11 90 20 120 20 59 0 58 -1
45 68 -8 38 -7 42 8 36 132 -56 237 -74 429 -74 l132 0 0 58 c0 68 -17 100
-89 168 -28 26 -49 50 -47 52 2 2 37 -8 78 -23 110 -40 222 -64 328 -71 220
-15 450 76 450 178 0 35 -49 118 -70 118 -6 0 -10 3 -10 8 0 4 33 8 73 8 113
2 210 57 268 151 l22 35 -39 40 c-22 22 -58 51 -81 65 l-42 25 47 35 c209 157
337 404 349 673 9 206 -37 342 -156 461 -83 83 -155 119 -230 118 -31 0 -63
-3 -71 -6z m-367 -1634 c56 -61 13 -169 -68 -169 -76 0 -122 103 -74 164 42
54 95 56 142 5z m-1432 -811 c22 -133 17 -480 -10 -658 -41 -272 -118 -528
-207 -687 -19 -35 -39 -63 -43 -63 -10 0 -44 115 -71 236 -47 215 -47 423 0
684 29 158 53 226 117 328 62 97 184 252 194 246 4 -2 13 -41 20 -86z m-7
-2505 l48 -52 -51 2 c-56 2 -57 4 -67 79 -7 60 -13 62 70 -29z m2975 -1531 c6
-12 7 -42 1 -83 -18 -120 -25 -123 -25 -9 0 109 5 127 24 92z m-59 -316 c-28
-72 -86 -158 -129 -190 -72 -53 -190 -36 -225 33 -38 73 -7 171 55 171 56 0
90 -67 53 -104 -33 -34 -74 -12 -74 38 0 29 -1 29 -17 13 -21 -21 -21 -79 2
-113 19 -29 71 -54 113 -54 70 0 177 113 219 231 10 27 19 45 21 41 1 -5 -7
-35 -18 -66z"/>
<path d="M4145 7773 c-142 -21 -295 -116 -373 -233 -22 -33 -42 -65 -45 -72
-4 -9 -12 -5 -29 12 -12 15 -33 34 -46 45 -22 18 -23 18 -53 -11 -48 -45 -62
-82 -62 -152 0 -61 0 -62 -18 -46 -23 20 -72 23 -94 4 -29 -24 -48 -117 -42
-209 6 -91 27 -164 76 -260 l29 -59 -50 34 c-48 33 -98 43 -125 26 -21 -13 29
-243 68 -310 24 -41 24 -40 -7 -44 -25 -3 -26 -6 -27 -74 -2 -61 -6 -76 -31
-108 -72 -94 -265 -112 -394 -36 -45 27 -50 25 -21 -6 135 -145 492 -104 618
72 77 106 106 219 121 474 15 248 58 447 127 584 71 141 182 250 286 281 82
24 183 20 245 -11 75 -37 118 -114 72 -129 -54 -17 -23 -107 39 -113 25 -3 39
4 66 31 41 41 51 77 36 129 -35 117 -211 204 -366 181z"/>
<path d="M2038 7327 c-121 -34 -198 -145 -198 -287 0 -74 11 -116 48 -174 l24
-39 -30 21 c-16 12 -46 46 -67 77 -21 30 -42 55 -45 55 -16 0 -35 -68 -35
-125 0 -44 7 -73 25 -109 31 -61 117 -150 200 -206 62 -42 202 -100 242 -100
18 0 19 -3 10 -12 -9 -9 -55 -13 -160 -12 -130 0 -157 4 -235 27 -148 45 -260
111 -372 218 -40 38 -40 38 -72 23 -17 -9 -39 -24 -49 -35 -16 -18 -15 -21 12
-61 43 -63 180 -198 249 -245 60 -40 217 -123 233 -123 5 0 12 23 16 51 l7 51
48 -45 c94 -88 241 -142 420 -153 81 -6 109 -3 179 16 78 21 171 71 179 95 2
6 -22 19 -53 30 -123 42 -295 160 -381 262 -62 74 -139 197 -164 261 -68 178
-40 365 72 486 23 26 39 49 36 52 -13 13 -94 13 -139 1z"/>
<path d="M2568 6909 c-12 -7 -18 -22 -18 -49 0 -47 -5 -49 -36 -15 -28 30 -45
31 -69 5 -43 -47 -13 -135 84 -248 l58 -68 -28 -32 c-16 -18 -29 -39 -29 -48
0 -32 32 -76 66 -90 45 -19 77 -10 113 32 l30 33 53 -23 c80 -36 185 -66 228
-66 75 0 121 70 60 93 -37 14 -37 20 0 47 54 38 49 102 -9 115 -22 5 -49 -2
-100 -24 -77 -34 -95 -37 -130 -17 l-24 14 24 24 c14 14 50 33 80 43 70 23
103 47 119 85 10 25 10 36 0 55 -16 30 -62 49 -100 41 -27 -5 -32 -2 -41 22
-27 72 -93 94 -145 49 l-27 -24 13 -76 c10 -62 10 -82 0 -107 -15 -35 -30 -38
-55 -10 -15 17 -19 38 -19 116 -1 88 -3 97 -25 115 -26 21 -47 24 -73 8z"/>
<path d="M1273 6832 c-29 -4 -63 -47 -63 -79 0 -34 42 -73 80 -73 38 0 80 39
80 73 0 29 -32 73 -57 79 -10 2 -28 2 -40 0z"/>
<path d="M8496 6274 c-15 -26 -25 -48 -24 -49 2 -2 33 -17 71 -33 84 -39 216
-125 283 -185 29 -26 57 -47 62 -47 6 0 25 17 42 38 l31 37 -38 32 c-57 49
-217 154 -314 207 l-87 47 -26 -47z"/>
<path d="M3085 6038 c19 -23 48 -67 63 -98 24 -49 27 -66 27 -155 0 -78 -5
-113 -22 -159 -36 -94 -111 -204 -210 -307 -51 -53 -93 -99 -93 -102 0 -10 69
-8 120 4 25 5 71 23 103 39 l58 29 -27 -47 c-146 -258 -179 -351 -171 -481 5
-78 30 -171 47 -171 3 0 19 14 36 31 16 17 81 75 144 129 148 125 198 190 215
283 l7 38 32 -63 c17 -35 47 -85 65 -112 32 -47 35 -48 49 -30 77 100 98 285
47 407 -8 20 -15 39 -15 41 0 3 39 -26 88 -65 198 -159 360 -231 485 -215 27
4 105 25 174 47 94 29 143 40 194 40 l69 1 -20 28 c-32 44 -120 118 -170 143
l-46 22 62 61 c39 39 73 85 95 130 31 62 34 77 34 154 0 63 -5 97 -19 128 -10
23 -22 42 -25 42 -3 0 -6 -35 -6 -78 -1 -92 -16 -125 -90 -197 -95 -93 -272
-161 -450 -172 -230 -14 -371 81 -500 337 -91 180 -170 270 -290 329 -89 44
-105 41 -60 -11z"/>
<path d="M2292 6043 c17 -39 94 -184 109 -205 28 -39 24 -40 -32 -6 -68 43
-174 50 -302 19 -49 -12 -113 -24 -143 -27 -30 -4 -56 -10 -59 -14 -6 -10 73
-102 125 -145 52 -43 174 -105 207 -105 13 0 23 -4 23 -10 0 -5 -6 -10 -13
-10 -26 0 -152 -98 -222 -171 -57 -61 -255 -317 -255 -331 0 -2 32 -2 72 0
l72 4 -64 -72 c-277 -307 -400 -597 -400 -940 0 -103 -1 -107 -40 -185 -94
-187 -124 -479 -74 -725 41 -204 143 -420 268 -572 17 -21 79 -80 137 -132
268 -240 473 -531 529 -750 24 -94 26 -227 6 -304 -49 -183 -226 -312 -373
-273 l-43 12 6 43 c6 38 3 45 -17 60 -13 9 -40 16 -61 16 -118 0 -115 -180 4
-241 80 -42 231 -25 328 36 60 38 147 141 184 218 80 165 86 370 17 530 l-20
47 57 0 c93 0 102 5 102 56 0 80 -47 156 -128 206 l-34 21 48 16 c78 26 84 75
21 167 -81 118 -238 207 -467 265 l-45 12 56 11 c67 14 103 36 129 79 l19 31
-52 34 c-96 60 -253 132 -314 144 l-61 11 24 26 c13 14 24 28 24 31 0 4 -20
20 -44 38 -130 91 -206 303 -206 576 0 118 17 286 29 286 3 0 16 -41 28 -91
28 -117 113 -292 192 -396 145 -192 380 -364 604 -442 123 -43 127 -42 127 18
0 27 -6 53 -12 58 -7 5 -42 17 -79 27 -191 50 -323 130 -484 291 -129 129
-191 225 -241 372 -44 129 -56 211 -56 368 0 339 108 623 323 850 87 91 195
175 227 175 39 0 175 31 205 46 27 14 25 11 -21 -58 -42 -61 -92 -149 -92
-160 0 -2 26 -3 59 -4 l58 -1 36 61 c95 167 279 369 451 498 99 74 249 160
313 180 48 15 49 22 7 95 -61 106 -253 200 -584 284 -85 22 -163 44 -174 50
-10 6 -17 7 -14 2z"/>
<path d="M8959 5969 c-23 -25 -29 -40 -29 -76 0 -38 5 -50 34 -79 26 -26 42
-34 71 -34 52 0 105 53 105 104 0 44 -22 91 -49 106 -11 5 -38 10 -61 10 -34
0 -48 -6 -71 -31z"/>
<path d="M9143 5788 l-41 -43 40 -45 c125 -139 278 -442 278 -550 0 -24 4 -31
14 -27 8 3 31 9 50 13 20 3 38 10 41 14 9 14 -22 153 -54 239 -51 141 -133
274 -238 389 l-48 54 -42 -44z"/>
<path d="M1451 5625 c-136 -38 -213 -137 -197 -253 3 -24 9 -48 12 -54 4 -5
25 9 49 32 l42 41 5 -59 c15 -165 169 -272 273 -191 26 21 26 22 7 43 -34 36
-45 68 -44 124 1 112 99 207 214 207 67 0 73 11 28 48 -77 65 -269 95 -389 62z"/>
<path d="M9429 5061 c-58 -59 -21 -151 61 -151 33 0 80 53 80 90 0 40 -47 90
-85 90 -16 0 -38 -12 -56 -29z"/>
<path d="M8443 4964 c-15 -24 -15 -29 -2 -53 11 -20 22 -26 49 -26 28 0 37 5
48 28 30 63 -56 110 -95 51z"/>
<path d="M9430 4847 c0 -36 -39 -156 -62 -196 -26 -41 -73 -71 -115 -71 -49 0
-63 9 -63 42 0 88 -97 140 -164 87 -39 -30 -56 -71 -56 -131 1 -207 243 -291
409 -142 83 75 137 209 143 359 l3 70 -47 3 c-45 3 -48 2 -48 -21z"/>
<path d="M2116 4814 c-37 -36 -9 -97 44 -97 36 0 60 23 60 59 0 31 -26 54 -60
54 -16 0 -36 -7 -44 -16z"/>
<path d="M8518 4823 c-15 -4 -18 -17 -17 -87 2 -90 -11 -141 -49 -198 -24 -37
-104 -98 -127 -98 -7 0 -17 18 -24 39 -16 53 -91 134 -153 165 -170 85 -378
-50 -378 -243 0 -91 59 -215 127 -267 184 -140 521 -36 639 198 58 115 80 299
51 438 -12 57 -24 66 -69 53z m-375 -227 c130 -54 119 -248 -16 -281 -136 -34
-232 150 -130 247 49 47 92 57 146 34z"/>
<path d="M2073 4683 c-24 -16 -46 -190 -40 -313 7 -144 36 -242 107 -357 150
-244 349 -363 606 -363 143 0 223 22 327 87 37 24 38 25 21 44 -9 10 -20 19
-24 19 -4 0 -34 -16 -65 -35 -86 -51 -154 -68 -255 -63 -218 12 -422 143 -514
330 -61 123 -89 251 -89 403 0 86 6 148 16 185 8 30 14 56 13 57 -8 8 -93 13
-103 6z"/>
<path d="M2875 4559 c-117 -44 -194 -172 -165 -278 43 -159 257 -203 383 -78
l35 36 25 -19 c35 -28 67 -98 67 -148 0 -23 -9 -65 -19 -92 l-19 -51 24 -10
c14 -5 29 -9 33 -9 13 0 69 130 82 189 38 176 -53 350 -227 435 -66 32 -167
44 -219 25z"/>
<path d="M3583 4251 c-105 -76 -86 -234 28 -234 37 0 79 40 79 75 0 18 4 20
41 15 23 -3 52 -16 65 -28 29 -27 54 -105 54 -166 l0 -43 39 0 40 0 6 53 c19
153 -60 311 -174 346 -70 21 -133 14 -178 -18z"/>
<path d="M6945 4178 c-49 -28 -59 -78 -24 -122 54 -68 155 4 123 89 -6 15 -54
45 -71 45 -4 0 -17 -6 -28 -12z"/>
<path d="M8554 4061 c-38 -23 -58 -76 -52 -135 3 -23 24 -82 48 -131 31 -66
43 -104 44 -140 l1 -50 -32 1 c-65 3 -93 38 -144 177 -38 105 -94 145 -158
112 -38 -19 -45 -46 -36 -132 l7 -66 -29 7 c-76 19 -86 19 -100 0 -32 -44 -9
-110 59 -169 46 -40 202 -118 311 -156 l67 -24 -6 -60 c-4 -47 -1 -68 13 -95
38 -73 122 -100 192 -62 50 27 73 75 68 140 l-4 52 48 0 c72 0 193 19 266 41
120 37 207 154 157 211 -16 17 -27 19 -71 15 -64 -7 -69 7 -23 60 38 42 40 84
5 118 -28 29 -79 33 -113 9 -12 -8 -54 -53 -92 -100 -77 -91 -114 -117 -163
-112 -27 2 -33 8 -35 30 -5 42 35 103 102 155 89 70 106 91 106 130 0 71 -56
133 -120 133 -20 0 -58 -11 -83 -24 l-45 -25 -25 38 c-25 38 -78 71 -114 71
-10 0 -32 -9 -49 -19z m160 -511 c58 -22 69 -110 19 -150 -73 -58 -172 26
-129 109 25 48 59 61 110 41z"/>
<path d="M3110 3869 c-9 -16 -8 -26 5 -45 19 -29 46 -31 70 -4 15 17 16 24 7
45 -15 32 -66 35 -82 4z"/>
<path d="M3831 3791 c-42 -42 -15 -111 44 -111 59 0 91 54 58 99 -26 34 -74
40 -102 12z"/>
<path d="M4370 3771 c-111 -36 -210 -133 -266 -261 -22 -51 -27 -190 -7 -197
6 -2 14 5 18 16 9 30 62 79 102 96 44 19 143 19 186 1 46 -19 96 -74 103 -113
3 -18 10 -35 13 -38 4 -2 27 5 51 17 78 39 99 132 51 226 -21 40 -44 67 -86
101 -16 12 -26 24 -23 26 3 3 28 8 57 12 28 3 51 9 51 12 0 13 -65 69 -98 85
-39 20 -117 29 -152 17z"/>
<path d="M3806 3632 c-3 -3 -6 -13 -6 -23 0 -59 -164 -291 -256 -362 l-52 -41
30 -38 30 -38 29 21 c54 38 155 145 200 210 39 57 108 207 109 235 0 12 -76
45 -84 36z"/>
<path d="M3647 3171 c-64 -42 -207 -265 -233 -363 -28 -105 -13 -202 35 -228
28 -15 28 -15 35 42 10 71 20 82 26 28 l5 -45 44 42 c23 24 40 36 37 27 -3 -9
-6 -19 -6 -24 0 -5 -12 -22 -26 -39 -34 -41 -19 -39 36 5 104 82 145 177 145
334 0 130 -11 196 -36 221 -23 23 -27 23 -62 0z"/>
<path d="M3383 3153 c-13 -2 -32 -16 -43 -30 -65 -83 48 -185 125 -113 63 59
5 159 -82 143z"/>
<path d="M4165 3035 c-141 -39 -244 -95 -332 -183 -51 -52 -121 -157 -111
-167 2 -2 49 19 105 47 56 27 107 48 113 46 6 -2 -33 -26 -86 -53 -122 -62
-133 -81 -43 -71 177 19 349 86 481 186 118 89 157 168 98 197 -33 17 -162 15
-225 -2z"/>
<path d="M3175 3004 c-81 -34 -245 -71 -355 -80 l-90 -7 0 -27 c0 -16 -3 -36
-7 -46 -6 -16 0 -17 65 -11 106 10 263 43 371 77 129 40 129 40 102 84 -13 20
-23 36 -24 36 -1 -1 -29 -12 -62 -26z"/>
<path d="M2492 2955 c-64 -53 -31 -145 52 -145 74 0 112 79 64 134 -35 40 -78
43 -116 11z"/>
<path d="M2872 2675 c-86 -16 -125 -37 -120 -67 4 -27 121 -118 203 -158 88
-44 185 -62 259 -49 63 11 136 37 136 48 0 3 -23 4 -51 2 -36 -2 -49 0 -45 8
4 6 17 11 30 11 12 0 31 6 41 14 18 13 17 15 -15 35 -46 27 -14 28 42 1 23
-11 43 -20 45 -20 2 0 3 15 3 33 -1 54 -56 102 -158 136 -73 25 -250 28 -370
6z"/>
<path d="M3945 2655 c-119 -17 -235 -44 -235 -56 0 -5 30 -9 66 -9 119 0 252
-48 341 -125 45 -38 90 -47 178 -34 116 16 210 79 203 135 -4 41 -68 70 -193
89 -118 18 -236 18 -360 0z"/>
<path d="M3591 2582 c-23 -7 -20 -11 46 -60 110 -81 136 -124 178 -287 27
-104 43 -122 121 -131 50 -6 51 -6 64 26 11 26 11 44 1 97 -39 213 -155 336
-336 356 -28 3 -61 2 -74 -1z"/>
<path d="M3880 2531 c0 -5 7 -11 15 -15 21 -8 99 -117 129 -179 31 -66 46
-148 35 -195 -10 -45 -1 -52 104 -87 95 -31 189 -36 218 -10 90 82 -162 357
-429 469 -68 29 -72 30 -72 17z"/>
<path d="M3503 2524 c-20 -9 -15 -24 6 -24 11 0 23 -4 26 -10 3 -5 -1 -10 -9
-10 -21 0 -21 0 18 -92 9 -21 14 -38 12 -38 -2 0 -22 29 -45 65 -47 76 -67 84
-57 25 8 -52 0 -51 -15 2 -9 36 -12 40 -21 24 -18 -33 -4 -150 25 -198 58 -98
244 -248 308 -248 48 0 53 19 36 122 -30 178 -80 287 -158 350 -35 29 -98 44
-126 32z"/>
<path d="M3349 2398 c-20 -44 -24 -69 -24 -148 1 -83 4 -102 28 -152 31 -62
112 -144 172 -173 54 -25 162 -42 176 -28 30 30 -32 114 -132 181 -121 81
-194 204 -187 314 2 32 0 58 -3 58 -4 0 -17 -24 -30 -52z"/>
<path d="M3085 2346 c-157 -49 -312 -181 -385 -328 -23 -47 -45 -106 -47 -131
-5 -40 -3 -47 21 -62 35 -23 90 -9 211 53 117 60 221 162 283 276 23 44 42 83
42 88 0 15 -18 8 -52 -19 l-33 -28 34 43 c18 23 49 54 67 69 19 14 33 28 30
30 -2 2 -32 -10 -67 -28 -35 -17 -58 -25 -52 -17 7 8 33 24 58 37 25 12 45 24
45 27 0 9 -118 2 -155 -10z"/>
<path d="M3254 2238 c-52 -56 -171 -248 -229 -368 -56 -117 -68 -187 -36 -219
58 -58 160 0 217 124 26 55 28 71 29 195 2 127 4 140 34 218 18 46 31 85 28
88 -2 2 -22 -15 -43 -38z"/>
<path d="M3278 2138 c-19 -33 -15 -254 5 -345 9 -40 23 -89 31 -108 24 -58 75
-124 108 -141 29 -15 32 -15 50 4 20 19 28 61 44 232 l6 65 -62 54 c-76 66
-126 140 -142 209 -14 58 -21 63 -40 30z"/>
<path d="M3840 2046 c0 -43 2 -47 40 -66 46 -23 102 -26 119 -6 7 8 11 34 9
57 l-3 42 -65 2 c-36 1 -73 5 -82 9 -16 7 -18 2 -18 -38z"/>
<path d="M4060 2020 c0 -82 -27 -142 -74 -164 -19 -9 -40 -16 -46 -16 -20 0 9
-29 49 -50 49 -24 145 -43 181 -35 34 7 60 39 60 71 0 39 -68 158 -120 209
l-50 49 0 -64z"/>
<path d="M3731 1967 c5 -20 8 -41 7 -49 -2 -7 14 -21 34 -31 64 -31 98 8 66
78 -8 19 -19 25 -42 25 -17 0 -41 3 -53 6 -21 6 -21 4 -12 -29z"/>
<path d="M3887 1927 c-4 -18 -9 -42 -13 -54 -6 -21 -3 -23 31 -23 27 0 44 7
66 29 40 41 38 61 -7 61 -19 0 -43 4 -53 10 -16 8 -19 4 -24 -23z"/>
<path d="M3690 1869 c-14 -6 -49 -9 -77 -7 -29 3 -53 1 -53 -3 0 -15 88 -69
133 -80 51 -14 100 0 118 33 13 24 5 35 -31 43 -16 4 -32 11 -35 16 -8 11 -23
11 -55 -2z"/>
<path d="M3836 1785 c-26 -39 -87 -52 -155 -33 -31 8 -64 19 -74 23 -17 7 -16
2 6 -41 78 -153 189 -223 252 -159 21 20 25 33 25 87 0 65 -14 133 -29 143 -5
2 -16 -6 -25 -20z"/>
</g>
</svg>
